# xmcd
#
# Track frame offsets:
#	150
#	15927
#	34242
#	62029
#	76694
#	92691
#	121404
#	146333
#	171640
#	192267
#	220710
#	237267
#
# Disc length: 3543 seconds
#
# Revision: 0
# Processed by: cddbd v1.5.1PL2 Copyright (c) Steve Scherf et al.
# Submitted via: dBpowerAMP V4.0
#
DISCID=990dd50c
DTITLE=james smith - plumber man
DYEAR=1900
DGENRE=
TTITLE0=plumber man
TTITLE1=all used up
TTITLE2=play on it
TTITLE3=stayed gone too long
TTITLE4=i won't tell
TTITLE5=two headed man
TTITLE6=hooked
TTITLE7=why wait
TTITLE8=without a fight
TTITLE9=dance my blues
TTITLE10=after the thrill is gone
TTITLE11=work that body
EXTD=
EXTT0=
EXTT1=
EXTT2=
EXTT3=
EXTT4=
EXTT5=
EXTT6=
EXTT7=
EXTT8=
EXTT9=
EXTT10=
EXTT11=
PLAYORDER=
